<svg xmlns="http://www.w3.org/2000/svg" viewBox="0 0 608 108" width="608" height="108">
  <rect x="0" y="0" width="608" height="108" fill="#ECE9E4"/>
  <rect x="88" y="22" width="447" height="65" fill="none" stroke="#A5A39F" stroke-width="1.2"/>
  <rect x="126" y="29" width="25" height="3.6" fill="#9D8145"/>
  <g fill="#201E19">
    
<g transform="translate(123.184,66.000) scale(0.03920,-0.03920)"><path d="M186.94964599609375 260.8992919921875 198.64971923828125 283.3994140625H470.7000732421875L477.7000732421875 260.8992919921875ZM704.3502807617188 12Q708.80029296875 12 708.80029296875 6.0Q708.80029296875 0 704.3502807617188 0Q675.4502563476562 0 644.6002197265625 2.0Q613.7501831054688 4 585.400146484375 4Q553.0501098632812 4 529.4250793457031 2.0Q505.800048828125 0 477 0Q473 0 473.0 6.0Q473 12 477 12Q526.2498168945312 12 537.1497192382812 27.675018310546875Q548.0496215820312 43.35003662109375 526.3495483398438 88.5001220703125L310.6998291015625 536.2490844726562L343.2001953125 584.2999267578125L147.5001220703125 131.55023193359375Q121.60009765625 71.000244140625 144.85015869140625 41.5001220703125Q168.1002197265625 12 230.7000732421875 12Q235.7000732421875 12 235.7000732421875 6.0Q235.7000732421875 0 230.7000732421875 0Q200.7000732421875 0 175.7000732421875 2.0Q150.7000732421875 4 112.7000732421875 4Q75.9000244140625 4 53.5 2.0Q31.0999755859375 0 -0.7000732421875 0Q-4.7000732421875 0 -4.7000732421875 6.0Q-4.7000732421875 12 -0.7000732421875 12Q26.2999267578125 12 46.074920654296875 22.675018310546875Q65.84991455078125 33.35003662109375 84.24993896484375 61.375091552734375Q102.64996337890625 89.400146484375 124.9000244140625 141.000244140625L337.5001220703125 632.2999267578125Q339.05010986328125 635.2999267578125 345.1251525878906 635.5249328613281Q351.2001953125 635.7499389648438 352.2001953125 632.2999267578125L592.3004150390625 137Q615.7504272460938 88.35003662109375 633.5254211425781 60.85003662109375Q651.3004150390625 33.35003662109375 668.1753845214844 22.675018310546875Q685.0503540039062 12 704.3502807617188 12Z"/></g>    <g transform="translate(156.061,66.000) scale(0.03920,-0.03920)"><path d="M118.64996337890625 114.35028076171875 128.64996337890625 602 153.800048828125 600 143.9000244140625 114.35028076171875Q142.9000244140625 62.45025634765625 162.65008544921875 37.225128173828125Q182.400146484375 12 228.35003662109375 12Q230.800048828125 12 230.800048828125 6.0Q230.800048828125 0 228.35003662109375 0Q206.35003662109375 0 183.07504272460938 1.0Q159.800048828125 2 131.35003662109375 2Q103.74993896484375 2 79.94989013671875 1.0Q56.14984130859375 0 35.24981689453125 0Q32.7998046875 0 32.7998046875 6.0Q32.7998046875 12 35.24981689453125 12Q76.7998046875 12 97.22488403320312 37.225128173828125Q117.64996337890625 62.45025634765625 118.64996337890625 114.35028076171875ZM818.7003173828125 12Q821.2503051757812 12 821.2503051757812 6.0Q821.2503051757812 0 818.7003173828125 0Q793.80029296875 0 762.7252502441406 1.0Q731.6502075195312 2 697.3001708984375 2Q663.60009765625 2 634.9000244140625 1.0Q606.199951171875 0 582.9498901367188 0Q580.4998779296875 0 580.4998779296875 6.0Q580.4998779296875 12 582.9498901367188 12Q631.599853515625 12 645.6498413085938 25.0Q659.6998291015625 38 657.2498168945312 81L636.999755859375 551.9494018554688L675.9000244140625 608.2999267578125L417.05010986328125 7Q416.05010986328125 3 409.2751159667969 3.0Q402.5001220703125 3 400.5001220703125 7L139.84967041015625 542Q105.14959716796875 613 42.24981689453125 613Q39.7998046875 613 39.7998046875 619.0Q39.7998046875 625 42.24981689453125 625Q59.94989013671875 625 79.64996337890625 624.0Q99.35003662109375 623 112.60009765625 623Q132.000244140625 623 147.37533569335938 624.0Q162.75042724609375 625 171.00048828125 625Q185.00048828125 625 192.77548217773438 615.5499877929688Q200.55047607421875 606.0999755859375 217.00048828125 573L443.75042724609375 111.75091552734375L406.95013427734375 48.15032958984375L647.5499877929688 600Q653 612.3500366210938 660.5999755859375 618.6750183105469Q668.199951171875 625 677.5499877929688 625Q684.800048828125 625 695.2500610351562 624.0Q705.7000732421875 623 719.60009765625 623Q748.3001708984375 623 767.2252502441406 624.0Q786.1503295898438 625 805.9503784179688 625Q808.400390625 625 808.400390625 619.0Q808.400390625 613 805.9503784179688 613Q758.3004150390625 613 735.9754333496094 597.5749206542969Q713.6504516601562 582.1498413085938 715.1004638671875 541.0498657226562L736.3505249023438 81Q737.800537109375 52 743.8505249023438 37.0Q749.9005126953125 22 767.1004638671875 17.0Q784.3004150390625 12 818.7003173828125 12Z"/></g>    <g transform="translate(194.270,66.000) scale(0.03920,-0.03920)"><path d="M468.7003173828125 0H42.64996337890625Q40.199951171875 0 40.199951171875 6.0Q40.199951171875 12 42.64996337890625 12Q77.4998779296875 12 94.6998291015625 17.0Q111.8997802734375 22 117.72476196289062 37.0Q123.54974365234375 52 123.54974365234375 81V544Q123.54974365234375 573 117.72476196289062 587.5Q111.8997802734375 602 94.6998291015625 607.5Q77.4998779296875 613 42.64996337890625 613Q40.199951171875 613 40.199951171875 619.0Q40.199951171875 625 42.64996337890625 625H451.25030517578125Q460.7003173828125 625 460.7003173828125 616L462.7003173828125 489.599853515625Q462.7003173828125 487.04986572265625 457.4253234863281 486.599853515625Q452.15032958984375 486.14984130859375 451.25030517578125 489.14984130859375Q444.05010986328125 544.2999267578125 412.0999755859375 572.89990234375Q380.14984130859375 601.4998779296875 328.04962158203125 601.4998779296875H276.60009765625Q247.25030517578125 601.4998779296875 231.22537231445312 596.2748718261719Q215.200439453125 591.0498657226562 208.92544555664062 577.6748962402344Q202.65045166015625 564.2999267578125 202.65045166015625 540.2500610351562V85Q202.65045166015625 61.05010986328125 208.47543334960938 47.5001220703125Q214.3004150390625 33.95013427734375 228.97531127929688 28.5001220703125Q243.65020751953125 23.05010986328125 271.199951171875 23.05010986328125H336.64923095703125Q393.74969482421875 23.05010986328125 430.84991455078125 56.7000732421875Q467.95013427734375 90.35003662109375 481.7003173828125 151.85015869140625Q482.15032958984375 154.85015869140625 487.9253234863281 153.900146484375Q493.7003173828125 152.95013427734375 493.7003173828125 150.400146484375Q489.7003173828125 123.05010986328125 486.9753112792969 85.2000732421875Q484.25030517578125 47.35003662109375 484.25030517578125 15Q484.25030517578125 0 468.7003173828125 0ZM412.7003173828125 229.599853515625Q412.7003173828125 272.7998046875 388.3001708984375 293.2748718261719Q363.9000244140625 313.74993896484375 310.4998779296875 313.74993896484375H165.05010986328125V336.800048828125H312.599853515625Q364.45001220703125 336.800048828125 388.0751647949219 354.55010986328125Q411.7003173828125 372.3001708984375 411.7003173828125 408.95013427734375Q411.7003173828125 411.400146484375 417.4753112792969 411.400146484375Q423.25030517578125 411.400146484375 423.25030517578125 408.95013427734375Q423.25030517578125 378.15008544921875 422.75030517578125 361.0250549316406Q422.25030517578125 343.9000244140625 422.25030517578125 325Q422.25030517578125 301.64996337890625 423.4753112792969 279.0249328613281Q424.7003173828125 256.39990234375 424.7003173828125 229.599853515625Q424.7003173828125 227.599853515625 418.7003173828125 227.599853515625Q412.7003173828125 227.599853515625 412.7003173828125 229.599853515625Z"/></g>    <g transform="translate(220.718,66.000) scale(0.03920,-0.03920)"><path d="M306.45025634765625 284.599853515625 447.599853515625 508.44952392578125Q477.84991455078125 557.8496704101562 470.0749206542969 585.4248352050781Q462.2999267578125 613 416.94989013671875 613Q414.4998779296875 613 414.4998779296875 619.0Q414.4998779296875 625 416.94989013671875 625Q445.64996337890625 625 471.45001220703125 623.5Q497.25006103515625 622 539.3001708984375 622Q564.3001708984375 622 579.8001708984375 623.5Q595.3001708984375 625 617.3001708984375 625Q619.3001708984375 625 619.3001708984375 619.0Q619.3001708984375 613 617.3001708984375 613Q594.5502319335938 613 568.7501831054688 599.3499145507812Q542.9501342773438 585.6998291015625 518.5250549316406 561.19970703125Q494.0999755859375 536.6995849609375 472.84991455078125 502.74945068359375L324.7003173828125 269.24981689453125ZM280.8995361328125 272.35003662109375 109.64996337890625 527.599609375Q77.34979248046875 576.9498901367188 53.024810791015625 594.9749450683594Q28.6998291015625 613 1.15008544921875 613Q-1.84991455078125 613 -1.84991455078125 619.0Q-1.84991455078125 625 1.15008544921875 625Q17.25006103515625 625 35.175018310546875 623.5Q53.0999755859375 622 69.199951171875 622Q96.64996337890625 622 123.97506713867188 622.5Q151.3001708984375 623 175.67526245117188 624.0Q200.05035400390625 625 217.5003662109375 625Q219.5003662109375 625 219.5003662109375 619.0Q219.5003662109375 613 217.5003662109375 613Q181.9005126953125 613 173.37557983398438 599.0498657226562Q164.85064697265625 585.0997314453125 181.75067138671875 560.8496704101562L344.45025634765625 317.9000244140625ZM269.399658203125 310 348.5003662109375 319V81Q348.5003662109375 52 354.05035400390625 37.0Q359.600341796875 22 376.80029296875 17.0Q394.000244140625 12 428.85015869140625 12Q431.85015869140625 12 431.85015869140625 6.0Q431.85015869140625 0 428.85015869140625 0Q404.5001220703125 0 374.3750915527344 1.0Q344.25006103515625 2 308.45001220703125 2Q274.0999755859375 2 242.74993896484375 1.0Q211.39990234375 0 187.04986572265625 0Q184.4998779296875 0 184.4998779296875 6.0Q184.4998779296875 12 187.04986572265625 12Q221.8997802734375 12 239.5997314453125 17.0Q257.2996826171875 22 263.34967041015625 37.0Q269.399658203125 52 269.399658203125 81Z"/></g>    <g transform="translate(249.910,66.000) scale(0.03920,-0.03920)"><path d="M186.94964599609375 260.8992919921875 198.64971923828125 283.3994140625H470.7000732421875L477.7000732421875 260.8992919921875ZM704.3502807617188 12Q708.80029296875 12 708.80029296875 6.0Q708.80029296875 0 704.3502807617188 0Q675.4502563476562 0 644.6002197265625 2.0Q613.7501831054688 4 585.400146484375 4Q553.0501098632812 4 529.4250793457031 2.0Q505.800048828125 0 477 0Q473 0 473.0 6.0Q473 12 477 12Q526.2498168945312 12 537.1497192382812 27.675018310546875Q548.0496215820312 43.35003662109375 526.3495483398438 88.5001220703125L310.6998291015625 536.2490844726562L343.2001953125 584.2999267578125L147.5001220703125 131.55023193359375Q121.60009765625 71.000244140625 144.85015869140625 41.5001220703125Q168.1002197265625 12 230.7000732421875 12Q235.7000732421875 12 235.7000732421875 6.0Q235.7000732421875 0 230.7000732421875 0Q200.7000732421875 0 175.7000732421875 2.0Q150.7000732421875 4 112.7000732421875 4Q75.9000244140625 4 53.5 2.0Q31.0999755859375 0 -0.7000732421875 0Q-4.7000732421875 0 -4.7000732421875 6.0Q-4.7000732421875 12 -0.7000732421875 12Q26.2999267578125 12 46.074920654296875 22.675018310546875Q65.84991455078125 33.35003662109375 84.24993896484375 61.375091552734375Q102.64996337890625 89.400146484375 124.9000244140625 141.000244140625L337.5001220703125 632.2999267578125Q339.05010986328125 635.2999267578125 345.1251525878906 635.5249328613281Q351.2001953125 635.7499389648438 352.2001953125 632.2999267578125L592.3004150390625 137Q615.7504272460938 88.35003662109375 633.5254211425781 60.85003662109375Q651.3004150390625 33.35003662109375 668.1753845214844 22.675018310546875Q685.0503540039062 12 704.3502807617188 12Z"/></g>    <g transform="translate(297.162,66.000) scale(0.03920,-0.03920)"><path d="M562.2495727539062 542Q562.2495727539062 571 556.4316001634919 586.0Q550.6136275730776 601 532.1900477034322 607.0Q513.7664678337869 613 475.94964599609375 613Q472.94964599609375 613 472.94964599609375 619.0Q472.94964599609375 625 475.94964599609375 625Q500.3380982933975 625 531.6189392834175 623.5Q562.8997802734375 622 602.2999267578125 622Q636.0999755859375 622 668.5750427246094 623.5Q701.0501098632812 625 725.400146484375 625Q728.400146484375 625 728.400146484375 619.0Q728.400146484375 613 725.400146484375 613Q689.6802083333333 613 671.3502400716145 607.5Q653.0202718098958 602 646.9102823893229 587.5Q640.80029296875 573 640.80029296875 544V81Q640.80029296875 52 646.9102823893229 37.0Q653.0202718098958 22 671.3502400716145 17.0Q689.6802083333333 12 725.400146484375 12Q728.400146484375 12 728.400146484375 6.0Q728.400146484375 0 725.400146484375 0Q701.0501098632812 0 668.5750427246094 1.0Q636.0999755859375 2 602.2999267578125 2Q562.8997802734375 2 531.6189392834175 1.0Q500.3380982933975 0 475.94964599609375 0Q472.94964599609375 0 472.94964599609375 6.0Q472.94964599609375 12 475.94964599609375 12Q513.7664678337869 12 532.1900477034322 17.0Q550.6136275730776 22 556.4316001634919 37.0Q562.2495727539062 52 562.2495727539062 81ZM154.95013427734375 313.74993896484375V336.800048828125H597.2999267578125V313.74993896484375ZM118.34979248046875 81V544Q118.34979248046875 573 112.24418520123771 587.5Q106.13857792200668 602 88.29141818271594 607.5Q70.44425844342521 613 34.74993896484375 613Q32.2999267578125 613 32.2999267578125 619.0Q32.2999267578125 625 34.74993896484375 625Q59.64996337890625 625 90.75467723804516 623.5Q121.85939109718407 622 155.60009765625 622Q195.55023193359375 622 227.12807963806907 623.5Q258.7059273425444 625 283.75042724609375 625Q285.75042724609375 625 285.75042724609375 619.0Q285.75042724609375 613 283.75042724609375 613Q246.90326750680302 613 228.47968763715767 607.0Q210.0561077675123 601 203.75330412789677 586.0Q197.45050048828125 571 197.45050048828125 542V81Q197.45050048828125 52 203.45050048828125 37.0Q209.45050048828125 22 228.26671570616884 17.0Q247.08293092405643 12 283.75042724609375 12Q285.75042724609375 12 285.75042724609375 6.0Q285.75042724609375 0 283.75042724609375 0Q257.61703604239005 0 226.5836339879919 1.0Q195.55023193359375 2 155.60009765625 2Q121.72178583559783 2 89.9608685037364 1.0Q58.199951171875 0 33.2999267578125 0Q31.2999267578125 0 31.2999267578125 6.0Q31.2999267578125 12 33.2999267578125 12Q69.4998779296875 12 87.64984130859375 17.0Q105.7998046875 22 112.07479858398438 37.0Q118.34979248046875 52 118.34979248046875 81Z"/></g>    <g transform="translate(332.195,66.000) scale(0.03920,-0.03920)"><path d="M468.7003173828125 0H42.64996337890625Q40.199951171875 0 40.199951171875 6.0Q40.199951171875 12 42.64996337890625 12Q77.4998779296875 12 94.6998291015625 17.0Q111.8997802734375 22 117.72476196289062 37.0Q123.54974365234375 52 123.54974365234375 81V544Q123.54974365234375 573 117.72476196289062 587.5Q111.8997802734375 602 94.6998291015625 607.5Q77.4998779296875 613 42.64996337890625 613Q40.199951171875 613 40.199951171875 619.0Q40.199951171875 625 42.64996337890625 625H451.25030517578125Q460.7003173828125 625 460.7003173828125 616L462.7003173828125 489.599853515625Q462.7003173828125 487.04986572265625 457.4253234863281 486.599853515625Q452.15032958984375 486.14984130859375 451.25030517578125 489.14984130859375Q444.05010986328125 544.2999267578125 412.0999755859375 572.89990234375Q380.14984130859375 601.4998779296875 328.04962158203125 601.4998779296875H276.60009765625Q247.25030517578125 601.4998779296875 231.22537231445312 596.2748718261719Q215.200439453125 591.0498657226562 208.92544555664062 577.6748962402344Q202.65045166015625 564.2999267578125 202.65045166015625 540.2500610351562V85Q202.65045166015625 61.05010986328125 208.47543334960938 47.5001220703125Q214.3004150390625 33.95013427734375 228.97531127929688 28.5001220703125Q243.65020751953125 23.05010986328125 271.199951171875 23.05010986328125H336.64923095703125Q393.74969482421875 23.05010986328125 430.84991455078125 56.7000732421875Q467.95013427734375 90.35003662109375 481.7003173828125 151.85015869140625Q482.15032958984375 154.85015869140625 487.9253234863281 153.900146484375Q493.7003173828125 152.95013427734375 493.7003173828125 150.400146484375Q489.7003173828125 123.05010986328125 486.9753112792969 85.2000732421875Q484.25030517578125 47.35003662109375 484.25030517578125 15Q484.25030517578125 0 468.7003173828125 0ZM412.7003173828125 229.599853515625Q412.7003173828125 272.7998046875 388.3001708984375 293.2748718261719Q363.9000244140625 313.74993896484375 310.4998779296875 313.74993896484375H165.05010986328125V336.800048828125H312.599853515625Q364.45001220703125 336.800048828125 388.0751647949219 354.55010986328125Q411.7003173828125 372.3001708984375 411.7003173828125 408.95013427734375Q411.7003173828125 411.400146484375 417.4753112792969 411.400146484375Q423.25030517578125 411.400146484375 423.25030517578125 408.95013427734375Q423.25030517578125 378.15008544921875 422.75030517578125 361.0250549316406Q422.25030517578125 343.9000244140625 422.25030517578125 325Q422.25030517578125 301.64996337890625 423.4753112792969 279.0249328613281Q424.7003173828125 256.39990234375 424.7003173828125 229.599853515625Q424.7003173828125 227.599853515625 418.7003173828125 227.599853515625Q412.7003173828125 227.599853515625 412.7003173828125 229.599853515625Z"/></g>    <g transform="translate(358.643,66.000) scale(0.03920,-0.03920)"><path d="M207.75042724609375 81Q207.75042724609375 52 213.3004150390625 37.0Q218.85040283203125 22 236.32534790039062 17.0Q253.80029296875 12 288.65020751953125 12Q291.1002197265625 12 291.1002197265625 6.0Q291.1002197265625 0 288.65020751953125 0Q263.6347953600761 0 233.4078390007345 1.0Q203.18088264139288 2 166.7000732421875 2Q132.1638246733567 2 101.2905115587958 1.0Q70.41719844423491 0 45.2999267578125 0Q42.74993896484375 0 42.74993896484375 6.0Q42.74993896484375 12 45.479931640625 12Q80.0598388671875 12 97.80479125976562 17.0Q115.54974365234375 22 121.5997314453125 37.0Q127.64971923828125 52 127.64971923828125 81V544Q127.64971923828125 573 121.70223422580295 587.5Q115.75474921332466 602 97.91229417588977 607.5Q80.06983913845487 613 45.2999267578125 613Q42.74993896484375 613 42.74993896484375 619.0Q42.74993896484375 625 45.2999267578125 625Q70.41719844423491 625 101.2905115587958 623.5Q132.1638246733567 622 166.7000732421875 622Q203.18088264139288 622 233.92899342072315 623.5Q264.6771042000534 625 288.65020751953125 625Q291.1002197265625 625 291.1002197265625 619.0Q291.1002197265625 613 288.65020751953125 613Q254.10872830165906 613 236.83798869272294 607.0Q219.56724908378686 601 213.6588381649403 586.0Q207.75042724609375 571 207.75042724609375 542Z"/></g>    <g transform="translate(376.977,66.000) scale(0.03920,-0.03920)"><path d="M412.2001953125 -12Q326.400146484375 -12 258.7751159667969 13.54998779296875Q191.15008544921875 39.0999755859375 144.52505493164062 84.199951171875Q97.9000244140625 129.2999267578125 73.45001220703125 188.12490844726562Q49 246.94989013671875 49 313.4998779296875Q49 387.599853515625 77.72500610351562 446.7748718261719Q106.45001220703125 505.94989013671875 158.07504272460938 548.3499145507812Q209.7000732421875 590.7499389648438 278.7751159667969 613.3749694824219Q347.85015869140625 636 428.55023193359375 636Q480.5001220703125 636 527.400146484375 626.800048828125Q574.3001708984375 617.60009765625 604.8501586914062 600.7501831054688Q613.6502075195312 596.7501831054688 614.8752136230469 593.9751892089844Q616.1002197265625 591.2001953125 617.1002197265625 578.3001708984375L629.5502319335938 454.14984130859375Q629.5502319335938 451.14984130859375 624.5502319335938 450.14984130859375Q619.5502319335938 449.14984130859375 617.5502319335938 452.599853515625Q608.3502807617188 483.6995849609375 591.4002685546875 513.299560546875Q574.4502563476562 542.8995361328125 548.3752136230469 566.2746276855469Q522.3001708984375 589.6497192382812 486.60009765625 603.9748229980469Q450.9000244140625 618.2999267578125 403.74993896484375 618.2999267578125Q329.85015869140625 618.2999267578125 269.9253234863281 583.5249328613281Q210.00048828125 548.7499389648438 174.87557983398438 484.199951171875Q139.75067138671875 419.64996337890625 139.75067138671875 330.0999755859375Q139.75067138671875 265.7998046875 159.15069580078125 207.07479858398438Q178.55072021484375 148.34979248046875 216.6007080078125 102.37484741210938Q254.65069580078125 56.39990234375 310.15057373046875 29.874969482421875Q365.65045166015625 3.35003662109375 438.3001708984375 3.35003662109375Q482.9000244140625 3.35003662109375 509.4749450683594 14.54998779296875Q536.0498657226562 25.74993896484375 547.9248352050781 52.2999267578125Q559.7998046875 78.84991455078125 559.7998046875 125.45001220703125Q559.7998046875 173.45001220703125 553.7498168945312 195.95001220703125Q547.6998291015625 218.45001220703125 524.7748718261719 225.45001220703125Q501.84991455078125 232.45001220703125 450.45001220703125 232.45001220703125Q444.45001220703125 232.45001220703125 444.45001220703125 240.45001220703125Q444.45001220703125 248.45001220703125 449.45001220703125 248.45001220703125Q515.0501098632812 244.45001220703125 568.3001708984375 243.95001220703125Q621.5502319335938 243.45001220703125 680.2503051757812 246.45001220703125Q684.80029296875 246.45001220703125 685.0252990722656 239.45001220703125Q685.2503051757812 232.45001220703125 680.2503051757812 232.45001220703125Q658.8504028320312 233.45001220703125 648.9254455566406 225.95001220703125Q639.00048828125 218.45001220703125 636.4505004882812 193.45001220703125Q633.9005126953125 168.45001220703125 633.9005126953125 115.45001220703125Q633.9005126953125 82.45001220703125 635.9005126953125 66.45001220703125Q637.9005126953125 50.45001220703125 639.4005126953125 42.95001220703125Q640.9005126953125 35.45001220703125 640.9005126953125 27.45001220703125Q640.9005126953125 21.45001220703125 638.9005126953125 19.45001220703125Q636.9005126953125 17.45001220703125 629.9005126953125 15.45001220703125Q577.6504516601562 4 520.4503784179688 -4.0Q463.25030517578125 -12 412.2001953125 -12Z"/></g>    <g transform="translate(410.363,66.000) scale(0.03920,-0.03920)"><path d="M562.2495727539062 542Q562.2495727539062 571 556.4316001634919 586.0Q550.6136275730776 601 532.1900477034322 607.0Q513.7664678337869 613 475.94964599609375 613Q472.94964599609375 613 472.94964599609375 619.0Q472.94964599609375 625 475.94964599609375 625Q500.3380982933975 625 531.6189392834175 623.5Q562.8997802734375 622 602.2999267578125 622Q636.0999755859375 622 668.5750427246094 623.5Q701.0501098632812 625 725.400146484375 625Q728.400146484375 625 728.400146484375 619.0Q728.400146484375 613 725.400146484375 613Q689.6802083333333 613 671.3502400716145 607.5Q653.0202718098958 602 646.9102823893229 587.5Q640.80029296875 573 640.80029296875 544V81Q640.80029296875 52 646.9102823893229 37.0Q653.0202718098958 22 671.3502400716145 17.0Q689.6802083333333 12 725.400146484375 12Q728.400146484375 12 728.400146484375 6.0Q728.400146484375 0 725.400146484375 0Q701.0501098632812 0 668.5750427246094 1.0Q636.0999755859375 2 602.2999267578125 2Q562.8997802734375 2 531.6189392834175 1.0Q500.3380982933975 0 475.94964599609375 0Q472.94964599609375 0 472.94964599609375 6.0Q472.94964599609375 12 475.94964599609375 12Q513.7664678337869 12 532.1900477034322 17.0Q550.6136275730776 22 556.4316001634919 37.0Q562.2495727539062 52 562.2495727539062 81ZM154.95013427734375 313.74993896484375V336.800048828125H597.2999267578125V313.74993896484375ZM118.34979248046875 81V544Q118.34979248046875 573 112.24418520123771 587.5Q106.13857792200668 602 88.29141818271594 607.5Q70.44425844342521 613 34.74993896484375 613Q32.2999267578125 613 32.2999267578125 619.0Q32.2999267578125 625 34.74993896484375 625Q59.64996337890625 625 90.75467723804516 623.5Q121.85939109718407 622 155.60009765625 622Q195.55023193359375 622 227.12807963806907 623.5Q258.7059273425444 625 283.75042724609375 625Q285.75042724609375 625 285.75042724609375 619.0Q285.75042724609375 613 283.75042724609375 613Q246.90326750680302 613 228.47968763715767 607.0Q210.0561077675123 601 203.75330412789677 586.0Q197.45050048828125 571 197.45050048828125 542V81Q197.45050048828125 52 203.45050048828125 37.0Q209.45050048828125 22 228.26671570616884 17.0Q247.08293092405643 12 283.75042724609375 12Q285.75042724609375 12 285.75042724609375 6.0Q285.75042724609375 0 283.75042724609375 0Q257.61703604239005 0 226.5836339879919 1.0Q195.55023193359375 2 155.60009765625 2Q121.72178583559783 2 89.9608685037364 1.0Q58.199951171875 0 33.2999267578125 0Q31.2999267578125 0 31.2999267578125 6.0Q31.2999267578125 12 33.2999267578125 12Q69.4998779296875 12 87.64984130859375 17.0Q105.7998046875 22 112.07479858398438 37.0Q118.34979248046875 52 118.34979248046875 81Z"/></g>    <g transform="translate(445.396,66.000) scale(0.03920,-0.03920)"><path d="M198.9005126953125 605.2999267578125Q136.800537109375 605.2999267578125 102.0003662109375 570.5747985839844Q67.2001953125 535.8496704101562 49.9000244140625 460.19970703125Q49.45001220703125 457.74969482421875 43.9000244140625 457.9747009277344Q38.35003662109375 458.19970703125 38.35003662109375 460.64971923828125Q40.35003662109375 473.54974365234375 42.625030517578125 497.6747741699219Q44.9000244140625 521.7998046875 47.125030517578125 549.8748474121094Q49.35003662109375 577.9498901367188 50.85003662109375 604.0249328613281Q52.35003662109375 630.0999755859375 52.35003662109375 647Q52.35003662109375 652 58.125030517578125 652.0Q63.9000244140625 652 63.9000244140625 647Q63.9000244140625 637 73.85003662109375 632.5Q83.800048828125 628 96.75006103515625 626.5Q109.7000732421875 625 118.7000732421875 625Q204.7000732421875 622 319.7000732421875 622Q390.25006103515625 622 431.9750671386719 623.5Q473.7000732421875 625 512.7000732421875 625Q547.0501098632812 625 565.5501098632812 629.5Q584.0501098632812 634 589.0501098632812 650Q590.0501098632812 654 595.2751159667969 654.0Q600.5001220703125 654 600.5001220703125 650Q599.0501098632812 634.5499877929688 597.2751159667969 607.9749450683594Q595.5001220703125 581.39990234375 594.2751159667969 552.099853515625Q593.0501098632812 522.7998046875 592.0501098632812 497.94976806640625Q591.0501098632812 473.0997314453125 591.0501098632812 460.64971923828125Q591.0501098632812 458.19970703125 585.5001220703125 458.19970703125Q579.9501342773438 458.19970703125 579.5001220703125 460.64971923828125Q572.7499389648438 538.5497436523438 539.7747497558594 571.9248352050781Q506.799560546875 605.2999267578125 442.2996826171875 605.2999267578125Q407.45001220703125 605.2999267578125 389.8001708984375 600.89990234375Q372.15032958984375 596.4998779296875 366.45037841796875 583.2248840332031Q360.75042724609375 569.9498901367188 360.75042724609375 542V81Q360.75042724609375 52 367.3004150390625 37.0Q373.85040283203125 22 393.55035400390625 17.0Q413.25030517578125 12 453.65020751953125 12Q456.1002197265625 12 456.1002197265625 6.0Q456.1002197265625 0 453.65020751953125 0Q426.75018310546875 0 393.1251525878906 1.0Q359.5001220703125 2 319.7000732421875 2Q281.9000244140625 2 248.27499389648438 1.0Q214.64996337890625 0 186.74993896484375 0Q184.2999267578125 0 184.2999267578125 6.0Q184.2999267578125 12 186.74993896484375 12Q226.14984130859375 12 246.34979248046875 17.0Q266.54974365234375 22 273.5997314453125 37.0Q280.64971923828125 52 280.64971923828125 81V544Q280.64971923828125 571.4998779296875 274.6747741699219 584.5498657226562Q268.6998291015625 597.599853515625 251.0 601.4498901367188Q233.3001708984375 605.2999267578125 198.9005126953125 605.2999267578125Z"/></g>    <g transform="translate(475.569,66.000) scale(0.03920,-0.03920)"><path d="M154.200439453125 513.000244140625Q154.200439453125 472.80029296875 174.25042724609375 443.75030517578125Q194.3004150390625 414.7003173828125 226.35040283203125 392.25030517578125Q258.400390625 369.80029296875 293.95037841796875 347.9002685546875Q331.400390625 325.55023193359375 365.6253967285156 300.7001953125Q399.85040283203125 275.85015869140625 422.35040283203125 242.45013427734375Q444.85040283203125 209.05010986328125 444.85040283203125 161.05010986328125Q444.85040283203125 111.9000244140625 419.65032958984375 72.72500610351562Q394.45025634765625 33.54998779296875 347.8752136230469 10.774993896484375Q301.3001708984375 -12 236.000244140625 -12Q210.400146484375 -12 183.95001220703125 -7.64996337890625Q157.4998779296875 -3.2999267578125 133.1998291015625 4.875091552734375Q108.8997802734375 13.05010986328125 89.199951171875 24.7000732421875Q84.64996337890625 27.7000732421875 82.47494506835938 31.75006103515625Q80.2999267578125 35.800048828125 79.74993896484375 43.7000732421875L70.15008544921875 186.75042724609375Q69.15008544921875 191.75042724609375 74.65008544921875 192.25042724609375Q80.15008544921875 192.75042724609375 81.15008544921875 188.75042724609375Q90.1002197265625 158.3004150390625 104.80029296875 126.27536010742188Q119.5003662109375 94.25030517578125 140.900390625 67.45025634765625Q162.3004150390625 40.65020751953125 191.67538452148438 23.8001708984375Q221.05035400390625 6.95013427734375 259.80029296875 6.95013427734375Q287.2001953125 6.95013427734375 312.60009765625 16.875091552734375Q338 26.800048828125 354.24993896484375 50.54998779296875Q370.4998779296875 74.2999267578125 370.4998779296875 115.6998291015625Q370.4998779296875 163.7998046875 349.2248840332031 196.74981689453125Q327.94989013671875 229.6998291015625 294.94989013671875 254.099853515625Q261.94989013671875 278.4998779296875 225.39990234375 300.39990234375Q190.39990234375 322.2999267578125 157.84991455078125 345.9749450683594Q125.2999267578125 369.64996337890625 105.02493286132812 401.14996337890625Q84.74993896484375 432.64996337890625 84.74993896484375 478.2999267578125Q84.74993896484375 532.0999755859375 113.22500610351562 567.0499877929688Q141.7000732421875 602 186.35015869140625 619.0Q231.000244140625 636 278.25030517578125 636Q308.75042724609375 636 340.6255187988281 630.0499877929688Q372.5006103515625 624.0999755859375 399.00048828125 612.9000244140625Q407.9005126953125 609.4500122070312 410.95050048828125 604.7250061035156Q414.00048828125 600 414.00048828125 594.5499877929688L418.95037841796875 470.0994873046875Q418.95037841796875 466.54949951171875 413.900390625 465.8744812011719Q408.85040283203125 465.199462890625 407.400390625 468.74945068359375Q403.600341796875 486.24932861328125 393.9753112792969 511.54937744140625Q384.35028076171875 536.8494262695312 367.1752624511719 561.3495483398438Q350.000244140625 585.8496704101562 323.3752136230469 602.3997802734375Q296.75018310546875 618.9498901367188 258.95013427734375 618.9498901367188Q224.05035400390625 618.9498901367188 200.8004150390625 604.5499877929688Q177.55047607421875 590.1500854492188 165.87545776367188 566.5251770019531Q154.200439453125 542.9002685546875 154.200439453125 513.000244140625Z"/></g>
  </g>
</svg>