<svg xmlns="http://www.w3.org/2000/svg" viewBox="0 0 891 894" width="891" height="894"><g transform="translate(28.000,28.000)"><path d="M359.40,768.75 C327.49,736.71 298.70,707.11 295.42,702.97 C288.43,694.16 279.59,679.48 280.43,678.11 C280.76,677.59 284.05,676.86 287.76,676.50 C298.23,675.48 312.01,673.08 317.34,671.35 C320.00,670.49 322.51,670.17 322.91,670.64 C323.31,671.11 326.61,675.10 330.25,679.50 C333.89,683.90 355.12,705.73 377.44,728.00 L418.03,768.50 L461.37,725.00 C485.21,701.08 506.57,678.95 508.83,675.83 C517.26,664.21 523.50,649.00 527.64,630.00 C530.31,617.69 530.29,584.54 527.61,574.50 C523.64,559.71 518.56,551.87 501.27,533.90 C496.72,529.17 493.00,524.86 493.00,524.32 C493.00,523.22 520.40,496.00 521.51,496.00 C524.06,496.00 546.99,520.39 552.29,528.74 C559.87,540.66 564.05,550.38 567.47,563.95 C572.11,582.42 573.05,600.95 570.49,623.85 C567.88,647.22 562.66,664.99 553.05,683.25 C544.73,699.05 537.48,707.51 498.00,747.45 C476.82,768.87 450.47,795.53 439.44,806.70 C428.41,817.86 418.94,827.00 418.40,827.00 C417.86,827.00 391.31,800.79 359.40,768.75 Z M163.67,667.33 C163.30,666.97 163.00,644.13 163.00,616.58 C163.01,563.62 163.41,557.53 168.08,539.50 C172.92,520.76 181.99,500.49 191.66,486.78 C198.52,477.04 211.27,463.00 231.41,443.01 L247.01,427.52 L262.21,442.72 L277.42,457.93 L252.40,483.21 C225.54,510.35 219.90,517.67 213.15,534.07 C206.26,550.82 205.76,554.30 205.10,590.39 C204.61,617.44 204.74,623.62 205.88,625.24 C207.22,627.15 208.34,627.19 246.88,626.72 C290.06,626.19 294.79,625.65 311.50,619.34 C329.44,612.56 337.33,606.77 362.25,582.08 L382.00,562.52 L396.50,577.00 C404.47,584.96 411.00,591.87 411.00,592.36 C411.00,594.10 376.49,628.63 368.33,635.06 C351.99,647.93 334.73,656.65 315.00,662.02 C294.63,667.56 288.47,667.96 223.42,667.98 C190.92,667.99 164.03,667.70 163.67,667.33 Z M571.64,667.23 C571.38,666.80 572.47,661.64 574.07,655.76 C575.66,649.88 577.48,641.79 578.09,637.79 C579.90,626.03 577.50,627.00 604.91,627.00 C624.30,627.00 628.98,626.73 629.93,625.58 C631.44,623.76 631.42,568.75 629.91,558.52 C627.48,542.04 619.48,523.25 609.42,510.36 C605.76,505.68 580.72,479.72 553.77,452.67 C526.83,425.63 501.82,400.45 498.19,396.71 L491.60,389.93 L506.04,375.46 C513.98,367.51 520.94,361.00 521.51,361.00 C523.11,361.00 634.01,472.67 639.69,480.00 C651.27,494.96 662.04,517.15 667.36,537.06 C672.77,557.28 673.10,562.22 672.79,617.00 L672.50,667.50 L622.31,667.76 C594.71,667.90 571.91,667.67 571.64,667.23 Z M499.70,654.96 C479.40,646.37 470.75,638.95 410.76,578.58 C381.75,549.38 358.01,525.27 358.01,524.99 C358.00,524.71 364.67,517.82 372.82,509.68 L387.65,494.88 L441.57,549.26 C495.16,603.30 498.27,606.14 513.11,614.33 C519.35,617.77 519.46,617.91 519.16,621.67 C518.86,625.50 517.22,633.03 514.60,642.57 C512.90,648.77 508.86,657.32 507.50,657.62 C506.95,657.74 503.44,656.54 499.70,654.96 Z M265.61,615.90 C264.45,612.28 264.08,596.45 264.93,587.00 C266.59,568.66 270.79,552.34 277.05,540.00 C283.75,526.79 290.73,518.83 335.39,473.50 C360.05,448.48 380.75,428.00 381.38,428.00 C382.01,428.00 389.02,434.50 396.95,442.45 L411.38,456.91 L406.37,462.20 C403.61,465.12 385.01,483.93 365.02,504.00 C345.04,524.08 325.83,543.83 322.34,547.91 C310.59,561.61 307.01,572.18 306.27,595.28 C305.79,610.05 305.62,611.13 303.64,612.19 C300.26,614.00 288.36,615.98 276.78,616.67 C268.05,617.18 265.97,617.04 265.61,615.90 Z M81.98,491.48 L11.51,421.00 L82.00,350.49 C144.24,288.24 152.65,280.18 153.75,281.68 C154.44,282.62 155.00,284.46 155.00,285.78 C155.00,291.87 160.72,315.01 164.53,324.34 C165.14,325.83 156.36,335.10 117.93,373.56 L70.58,420.95 L111.47,462.22 C133.95,484.93 154.97,506.11 158.17,509.30 C161.38,512.49 164.00,515.86 163.99,516.80 C163.99,517.73 163.08,521.42 161.98,525.00 C159.39,533.41 157.22,542.54 155.45,552.44 C154.67,556.80 153.67,560.73 153.24,561.16 C152.80,561.60 120.74,530.24 81.98,491.48 Z M682.12,559.81 C681.65,558.54 680.69,554.12 680.00,550.00 C679.31,545.88 677.22,537.12 675.37,530.55 C673.52,523.98 672.00,517.70 672.00,516.59 C672.00,515.28 687.93,498.63 718.25,468.28 C743.69,442.82 764.50,421.53 764.50,420.98 C764.50,420.43 749.86,405.25 731.97,387.24 C714.08,369.23 693.07,347.96 685.29,339.98 L671.14,325.45 L673.98,316.98 C676.88,308.32 681.00,290.01 681.00,285.75 C681.00,284.45 681.56,282.61 682.25,281.68 C683.35,280.17 691.64,288.12 753.50,349.98 C792.00,388.49 823.50,420.38 823.50,420.84 C823.50,421.91 694.20,552.64 687.75,558.10 C683.02,562.11 682.99,562.11 682.12,559.81 Z M440.73,534.63 C432.63,526.83 426.01,520.01 426.03,519.47 C426.04,518.94 446.28,498.02 471.00,473.00 L515.94,427.50 L530.60,442.14 C544.41,455.92 545.19,456.90 543.84,458.82 C543.05,459.94 522.84,480.65 498.93,504.84 L455.45,548.82 L440.73,534.63 Z M256.91,424.25 C200.76,367.87 192.35,358.61 184.35,344.30 C174.57,326.82 167.22,304.44 164.60,284.16 C162.41,267.23 162.22,177.89 164.37,176.11 C165.36,175.28 179.22,175.04 214.62,175.24 C262.80,175.50 263.50,175.53 263.35,177.50 C263.27,178.60 262.07,184.00 260.69,189.50 C259.31,195.00 257.87,202.17 257.49,205.43 C257.12,208.70 256.41,212.41 255.93,213.68 L255.05,216.00 L230.58,216.00 C212.16,216.00 205.93,216.31 205.35,217.24 C204.05,219.34 203.78,255.35 204.95,270.23 C206.79,293.64 211.94,309.61 223.43,327.50 C228.42,335.27 236.99,344.31 286.10,393.53 C317.40,424.89 343.00,451.08 343.00,451.72 C343.00,453.08 315.68,481.00 314.35,481.00 C313.85,481.00 288.00,455.46 256.91,424.25 Z M402.62,435.75 L358.02,390.50 L373.01,375.50 L388.00,360.51 L433.00,405.50 C457.75,430.25 478.00,450.95 478.00,451.51 C478.00,452.90 449.75,481.00 448.35,481.00 C447.73,481.00 427.15,460.64 402.62,435.75 Z M308.97,403.25 C303.19,397.34 296.72,390.61 294.58,388.30 L290.70,384.10 L335.53,339.05 C360.18,314.27 380.84,294.00 381.44,294.00 C382.80,294.00 411.00,322.16 411.00,323.52 C411.00,324.83 321.79,414.00 320.48,414.00 C319.92,414.00 314.74,409.16 308.97,403.25 Z M439.24,399.74 C431.41,391.89 425.00,385.04 425.00,384.51 C425.00,383.98 444.96,363.51 469.36,339.03 C512.61,295.61 519.06,288.36 523.92,277.67 C527.66,269.46 529.95,256.65 529.98,243.87 C529.99,235.80 530.38,231.93 531.25,231.23 C533.89,229.09 548.49,226.74 559.87,226.62 L571.50,226.50 L571.82,237.00 C572.69,266.05 565.25,293.74 550.73,315.50 C547.30,320.63 455.63,414.00 454.01,414.00 C453.72,414.00 447.07,407.58 439.24,399.74 Z M574.17,399.93 C566.65,392.19 560.34,385.41 560.14,384.86 C559.95,384.31 570.54,372.98 583.68,359.68 C596.81,346.38 609.18,333.02 611.17,330.00 C621.03,314.94 626.79,300.88 629.53,285.16 C630.49,279.68 631.25,266.08 631.65,247.53 C632.20,221.68 632.09,218.32 630.68,217.15 C629.40,216.08 621.13,215.91 588.29,216.27 C548.49,216.69 547.27,216.77 537.94,219.24 C526.01,222.41 515.81,226.63 505.49,232.65 C499.09,236.38 493.30,241.47 476.43,258.16 C464.84,269.62 454.94,279.00 454.42,279.00 C453.90,279.00 446.96,272.47 439.00,264.50 L424.52,250.00 L441.01,233.43 C450.08,224.31 460.88,214.03 465.00,210.57 C484.30,194.38 502.22,185.30 526.00,179.62 C544.13,175.30 553.32,174.84 615.00,175.18 L672.50,175.50 L672.50,229.00 C672.50,289.59 672.52,289.37 664.44,314.50 C655.03,343.73 646.46,356.41 613.59,389.75 C600.44,403.09 589.27,414.00 588.76,414.00 C588.26,414.00 581.69,407.67 574.17,399.93 Z M301.84,334.27 C281.14,313.29 272.77,297.54 266.40,267.50 C264.29,257.57 263.98,224.55 265.88,212.50 C268.81,193.97 274.66,173.93 281.17,160.10 C290.63,140.03 300.50,128.80 367.45,62.00 L418.06,11.50 L476.33,70.00 C515.03,108.85 536.84,131.51 541.27,137.46 C547.51,145.85 557.32,163.67 556.46,165.07 C556.24,165.41 552.12,165.99 547.29,166.35 C539.92,166.90 532.44,168.23 517.36,171.70 C515.63,172.10 514.19,170.80 509.77,164.83 C504.37,157.52 445.05,96.18 427.16,79.40 L417.82,70.64 L374.55,114.07 C337.92,150.84 330.35,158.93 325.20,166.84 C311.83,187.36 306.00,209.45 306.00,239.61 C306.00,255.59 307.55,265.43 311.73,276.00 C315.55,285.64 321.05,293.21 333.38,305.78 L344.44,317.05 L329.44,332.05 L314.45,347.05 L301.84,334.27 Z M395.22,294.09 C366.50,264.99 340.19,239.06 336.75,236.47 C333.32,233.89 327.50,230.26 323.82,228.41 C320.15,226.56 316.86,224.58 316.50,224.01 C314.90,221.41 322.82,188.22 325.60,185.92 C329.83,182.41 358.19,198.65 376.69,215.19 C379.00,217.25 402.82,241.02 429.63,268.01 L478.38,317.09 L463.45,332.05 C455.24,340.27 448.28,347.00 447.98,347.00 C447.68,347.00 423.93,323.19 395.22,294.09 Z" fill="#9A7720" fill-rule="evenodd"/></g></svg>